<svg width="160" height="15" viewBox="0 0 160 15" fill="none" xmlns="http://www.w3.org/2000/svg">
<path d="M67.7334 14.8821V3.6186C67.7334 1.61393 66.1025 0 64.1148 0H54.1934V14.8821H57.5571V2.99002H63.2144C63.86 2.99002 64.3866 3.51667 64.3866 4.16224V14.8652H67.7334V14.8821Z" fill="white"/>
<path d="M0 0V2.99002H5.23253V14.8821H8.5963V2.99002H13.8288V0H0Z" fill="white"/>
<path d="M48.3165 2.99002V0H38.2422V2.99002H41.606V11.8921H38.2422V14.8821H48.3165V11.8921H44.9527V2.99002H48.3165Z" fill="white"/>
<path d="M28.9999 0V5.94606H22.1704V0H18.8066V14.8821H22.1704V8.93608H28.9999V14.8821H32.3637V0H28.9999Z" fill="white"/>
<path d="M105.891 0H92.0625V1.68189H98.0425V14.8821H99.9113V1.68189H105.891V0Z" fill="white"/>
<path d="M160 0H158.131C158.131 3.65258 155.175 6.60862 151.522 6.60862H148.345V0H146.477V14.8821H148.345V8.27352H158.131V14.8821H160V6.60862H156.721C158.708 5.09663 160 2.70121 160 0Z" fill="white"/>
<path d="M122.693 14.8821L115.829 0H115.795H113.858H113.824L106.961 14.8821H108.932L110.291 11.9091C111.718 12.3678 113.213 12.6056 114.742 12.6056C116.322 12.6056 117.868 12.3508 119.329 11.8581L120.722 14.8652H122.693V14.8821ZM114.759 10.8048C113.485 10.8048 112.244 10.618 111.072 10.2612L114.844 2.08962L118.598 10.2102C117.375 10.601 116.084 10.8048 114.759 10.8048Z" fill="white"/>
<path d="M87.1513 0.81546V0H83.7876V0.83245C83.7876 3.65258 81.4941 5.94606 78.674 5.94606H76.9751V0H73.6113V14.8821H76.9751V8.93608H78.674C81.4941 8.93608 83.7876 11.2296 83.7876 14.0497V14.8821H87.1513V14.0667C87.1513 11.3315 85.7923 8.91909 83.7366 7.44107C85.7923 5.96305 87.1513 3.55065 87.1513 0.81546Z" fill="white"/>
<path d="M138.849 0V12.9964L129.369 0H126.889V14.8821H128.757V1.88575L138.254 14.8821H140.718V0H138.849Z" fill="white"/>
</svg>
