<svg xmlns="http://www.w3.org/2000/svg" xmlns:xlink="http://www.w3.org/1999/xlink" width="400" zoomAndPan="magnify" viewBox="0 0 300 149.999998" height="200" preserveAspectRatio="xMidYMid meet" version="1.0"><defs><clipPath id="2f2e98c2ce"><path d="M 124 0.75 L 178 0.75 L 178 40 L 124 40 Z M 124 0.75 " clip-rule="nonzero"/></clipPath><clipPath id="fdd499e421"><path d="M 90 140 L 97 140 L 97 146.875 L 90 146.875 Z M 90 140 " clip-rule="nonzero"/></clipPath><clipPath id="72a79249c4"><path d="M 116 140 L 121 140 L 121 146.875 L 116 146.875 Z M 116 140 " clip-rule="nonzero"/></clipPath><clipPath id="db706eff34"><path d="M 107 140 L 115 140 L 115 146.875 L 107 146.875 Z M 107 140 " clip-rule="nonzero"/></clipPath><clipPath id="35ec424cb9"><path d="M 123 140 L 131 140 L 131 146.875 L 123 146.875 Z M 123 140 " clip-rule="nonzero"/></clipPath><clipPath id="a664f3f7e9"><path d="M 140 140 L 148 140 L 148 146.875 L 140 146.875 Z M 140 140 " clip-rule="nonzero"/></clipPath><clipPath id="c596246b70"><path d="M 150 140 L 158 140 L 158 146.875 L 150 146.875 Z M 150 140 " clip-rule="nonzero"/></clipPath><clipPath id="dea7b14f48"><path d="M 163 140 L 172 140 L 172 146.875 L 163 146.875 Z M 163 140 " clip-rule="nonzero"/></clipPath><clipPath id="30ee08645e"><path d="M 173 140 L 180 140 L 180 146.875 L 173 146.875 Z M 173 140 " clip-rule="nonzero"/></clipPath><clipPath id="ec85a9f3e0"><path d="M 181 140 L 189 140 L 189 146.875 L 181 146.875 Z M 181 140 " clip-rule="nonzero"/></clipPath><clipPath id="5e8c39bfa7"><path d="M 191 140 L 198 140 L 198 146.875 L 191 146.875 Z M 191 140 " clip-rule="nonzero"/></clipPath><clipPath id="4ae9676b31"><path d="M 199 140 L 206 140 L 206 146.875 L 199 146.875 Z M 199 140 " clip-rule="nonzero"/></clipPath><clipPath id="93e07a1067"><path d="M 208 140 L 214 140 L 214 146.875 L 208 146.875 Z M 208 140 " clip-rule="nonzero"/></clipPath><clipPath id="66e09fc66b"><path d="M 99 140 L 106 140 L 106 146.875 L 99 146.875 Z M 99 140 " clip-rule="nonzero"/></clipPath><clipPath id="14208987b8"><path d="M 133 140 L 138 140 L 138 146.875 L 133 146.875 Z M 133 140 " clip-rule="nonzero"/></clipPath><clipPath id="0a21ec453e"><path d="M 67.382812 111 L 83 111 L 83 128 L 67.382812 128 Z M 67.382812 111 " clip-rule="nonzero"/></clipPath><clipPath id="2c8f625a8b"><path d="M 222 111 L 236.769531 111 L 236.769531 128 L 222 128 Z M 222 111 " clip-rule="nonzero"/></clipPath></defs><path fill="#000000" d="M 153.789062 4.945312 C 154.644531 4.402344 155.464844 4.347656 156.851562 4.535156 C 157.9375 4.679688 159.398438 5.167969 160.316406 5.59375 C 161.222656 6.011719 161.039062 6.632812 160.40625 8.09375 C 160.210938 8.554688 160.09375 8.8125 160.09375 8.8125 C 160.09375 8.8125 162.167969 7.042969 164.617188 6.253906 C 166.09375 5.773438 167.144531 5.84375 168.070312 6.929688 C 168.4375 7.355469 169.886719 9.695312 170.8125 13.632812 C 170.929688 14.132812 171.035156 14.148438 171.464844 14.160156 C 172.050781 14.167969 172.523438 14.167969 172.949219 14.183594 C 173.726562 14.210938 173.949219 14.167969 174.152344 14.984375 C 174.652344 16.949219 174.890625 19.441406 174.867188 22.429688 C 174.855469 23.40625 175.097656 23.371094 175.816406 23.097656 C 176.992188 22.640625 179.253906 21.761719 179.253906 21.761719 C 179.253906 21.761719 178.363281 23.34375 177.671875 24.386719 C 177.351562 24.875 177.296875 25.007812 177.484375 25.390625 C 178.5 27.425781 179.316406 30.621094 179.078125 33.039062 C 178.988281 33.9375 178.835938 33.910156 177.046875 35.074219 C 176.816406 35.226562 176.683594 35.367188 176.878906 35.742188 C 177.769531 37.492188 178.675781 37.691406 179.671875 37.40625 C 180.589844 37.148438 182.90625 36.019531 184.292969 34.808594 C 184.554688 34.585938 184.605469 34.46875 184.640625 33.988281 C 184.679688 33.511719 184.652344 33.019531 184.597656 32.636719 C 184.492188 31.855469 184.527344 31.632812 183.324219 31.898438 C 182.300781 32.121094 181.855469 32.230469 180.519531 32.46875 C 181.730469 31.394531 182.453125 30.683594 183.351562 29.667969 C 184.0625 28.875 184.179688 28.476562 184.332031 27.976562 C 184.429688 27.648438 184.480469 27.1875 184.527344 26.761719 C 184.605469 25.996094 184.472656 25.84375 184.035156 25.53125 C 182.949219 24.777344 179.816406 23.523438 179.816406 23.523438 C 179.816406 23.523438 180.636719 22.3125 181.277344 21.300781 C 181.800781 20.453125 181.660156 19.679688 181.589844 19.21875 C 181.390625 18.035156 180.761719 16.300781 179.609375 14.621094 C 179.058594 13.8125 178.007812 13.410156 176.769531 13.25 C 176.003906 13.152344 175.097656 13.089844 173.761719 13.179688 C 174.429688 12.007812 175.015625 10.839844 174.988281 9.773438 C 174.972656 8.945312 171.75 5.210938 170.066406 4.019531 C 169.210938 3.40625 168.3125 3.113281 167.082031 3.433594 C 165.507812 3.84375 163.914062 5.050781 162.800781 5.664062 C 162.800781 5.664062 163.023438 4.695312 163.226562 3.878906 C 163.460938 2.925781 163.371094 2.507812 162.257812 2.011719 C 161.320312 1.59375 159.835938 1.335938 158.945312 1.371094 C 157.003906 1.441406 155.382812 1.992188 153.789062 4.945312 Z M 153.789062 4.945312 " fill-opacity="1" fill-rule="nonzero"/><g clip-path="url(#2f2e98c2ce)"><path fill="#000000" d="M 168.179688 26.171875 C 166.628906 26.644531 163.210938 28.371094 160.351562 29.542969 C 159.746094 29.792969 159.542969 29.6875 159.132812 29.472656 C 158.730469 29.257812 157.992188 28.707031 157.671875 28.324219 C 157.484375 28.101562 157.359375 27.863281 157.636719 27.25 C 158.613281 25.035156 161.828125 20.828125 162.363281 19.769531 C 160.726562 20.429688 156.253906 23.691406 154.421875 24.964844 C 153.753906 25.425781 153.433594 25.417969 152.695312 25.078125 C 152.105469 24.804688 151.644531 24.574219 151.027344 24.214844 C 150.53125 23.933594 150.496094 23.734375 150.449219 23.050781 C 150.308594 20.996094 150.199219 16.703125 150.050781 14.273438 C 149.132812 16.640625 147.875 21.121094 146.878906 23.21875 C 146.628906 23.753906 146.292969 23.816406 145.589844 23.835938 C 144.9375 23.851562 142.25 23.664062 140.796875 23.503906 C 139.960938 23.40625 139.792969 23.335938 139.535156 22.617188 C 138.199219 18.941406 137.335938 15.054688 136.417969 12.636719 C 136.203125 14.453125 136.230469 19.851562 137.28125 24.386719 C 137.433594 25.015625 137.414062 25.050781 137.101562 25.285156 C 136.480469 25.738281 135.535156 26.289062 135 26.503906 C 134.386719 26.75 134.269531 26.804688 133.960938 26.617188 C 132.8125 25.933594 129.933594 22.617188 128.617188 20.855469 C 127.300781 19.09375 125.679688 16.71875 125.0625 15.09375 C 124.816406 14.441406 124.78125 14.34375 125.0625 13.875 C 125.695312 12.804688 126.988281 11.472656 127.921875 10.886719 C 128.402344 10.582031 129.578125 10.679688 130.246094 10.921875 C 130.566406 11.035156 130.566406 11.082031 130.621094 11.515625 C 130.761719 12.789062 131.019531 14.65625 132.214844 17.796875 C 132.367188 14.859375 132.3125 12.769531 132.367188 10.324219 C 132.402344 8.722656 132.515625 8.074219 133.460938 7.425781 C 135.117188 6.289062 136.550781 5.738281 137.78125 5.363281 C 138.707031 5.078125 139.285156 5.042969 139.730469 6.011719 C 140.824219 8.367188 141.625 12.691406 142.710938 16.300781 C 143.03125 12.21875 143.128906 7.398438 143.265625 4.269531 C 143.308594 3.128906 143.585938 2.847656 144.796875 2.132812 C 146.558594 1.09375 148.054688 0.597656 149.238281 0.792969 C 150.273438 0.960938 151.4375 1.707031 152.152344 2.445312 C 152.335938 2.640625 152.480469 2.8125 152.417969 3.308594 C 152.105469 5.886719 151.8125 7.113281 151.5625 8.652344 C 152.277344 8.011719 152.710938 7.460938 153.824219 6.757812 C 154.546875 6.304688 155.292969 6.191406 156.21875 6.375 C 157.019531 6.546875 157.324219 6.632812 158.160156 6.972656 C 158.980469 7.308594 158.988281 7.382812 158.613281 8.332031 C 157.894531 10.136719 156.488281 13.6875 155.550781 17.136719 C 157.574219 14.34375 159.148438 12.46875 160.824219 10.894531 C 162.691406 9.140625 164.332031 8.367188 165.382812 8.199219 C 165.988281 8.101562 166.425781 8.199219 166.832031 8.609375 C 167.660156 9.425781 168.195312 10.53125 168.648438 12.09375 C 168.835938 12.734375 168.785156 12.832031 168.292969 13.359375 C 167.128906 14.601562 164.832031 16.558594 164.832031 16.558594 C 164.832031 16.558594 168.089844 15.867188 170.761719 15.8125 C 171.738281 15.792969 172.148438 15.875 172.390625 16.613281 C 173.101562 18.800781 173.53125 22.054688 173.109375 23.085938 C 172.78125 23.894531 170.539062 26.289062 169.453125 27.597656 C 171.097656 26.929688 173.074219 26.085938 174.277344 25.566406 C 175.078125 25.222656 175.371094 25.433594 175.746094 26.085938 C 177.003906 28.28125 177.519531 30.609375 177.429688 32.257812 C 177.375 33.214844 177.207031 33.242188 175.738281 34.1875 C 175.273438 34.488281 175.175781 34.691406 175.0625 35.359375 C 175.015625 35.636719 174.890625 36.90625 174.617188 38.089844 C 174.347656 39.253906 174.039062 39.378906 173.101562 39.449219 C 171.285156 39.59375 167.609375 39.085938 166.796875 38.757812 C 165.640625 38.277344 164.039062 36.878906 163.46875 35.921875 C 163.191406 35.457031 163.273438 35.304688 163.519531 34.960938 C 163.867188 34.480469 164.039062 34.453125 164.484375 34.488281 C 168.304688 34.808594 172.210938 34.328125 173.707031 33.820312 C 171.835938 33.351562 166.308594 32.746094 164.4375 32.417969 C 163.976562 32.335938 163.734375 32.203125 163.582031 32.007812 C 163.503906 31.898438 163.398438 31.703125 163.378906 31.464844 C 163.359375 31.222656 163.324219 31.011719 163.683594 30.664062 C 164.9375 29.429688 167.6875 26.847656 168.179688 26.171875 Z M 168.179688 26.171875 " fill-opacity="1" fill-rule="nonzero"/></g><path fill="#000000" d="M 132.613281 29.082031 C 130.933594 27.097656 127.023438 21.769531 125.777344 20.507812 C 125.375 20.097656 125.242188 19.949219 124.832031 19.902344 C 124.261719 19.832031 123.132812 19.824219 122.570312 19.886719 C 122.257812 19.921875 122.109375 19.949219 121.921875 20.355469 C 120.863281 22.703125 118.441406 28.308594 120.371094 34.613281 C 120.863281 36.222656 122.9375 37.609375 124.59375 38.214844 C 125.296875 38.464844 125.792969 38.507812 126.558594 38.453125 C 127.253906 38.410156 127.894531 38.320312 128.574219 38.144531 C 129.265625 37.964844 129.320312 37.832031 128.894531 37.085938 C 126.292969 32.601562 125.964844 29.152344 125.980469 26.304688 C 126.898438 28.914062 127.921875 31.695312 130.96875 35.894531 C 131.832031 37.085938 132.722656 36.996094 134.34375 36.410156 C 138.5 34.898438 142.019531 31.136719 142.019531 31.136719 C 142.019531 31.136719 141.617188 33.757812 141.5625 34.132812 C 141.492188 34.621094 141.527344 34.683594 141.929688 34.835938 C 142.640625 35.101562 143.398438 35.34375 144.019531 35.519531 C 144.527344 35.671875 144.636719 35.699219 145.089844 35.253906 C 145.554688 34.800781 147.875 32.585938 148.667969 31.785156 C 149.027344 31.421875 149.257812 31.375 149.65625 31.722656 C 149.976562 32 155.089844 36.773438 155.089844 36.773438 C 155.089844 36.773438 150.484375 34.753906 149.695312 34.488281 C 148.855469 34.210938 148.625 34.230469 147.992188 34.84375 C 147.101562 35.707031 144.761719 39.183594 144.761719 39.183594 C 144.761719 39.183594 143.601562 37.832031 142.847656 37.40625 C 141.964844 36.90625 141.277344 36.445312 138.449219 37.226562 C 135.667969 37.992188 131.617188 39.148438 128.546875 40.640625 C 126.996094 41.398438 126.222656 41.613281 126.710938 42.820312 C 127.023438 43.585938 127.769531 45.1875 129.007812 46.53125 C 129.382812 46.929688 129.792969 47.132812 130.40625 47.304688 C 132.367188 47.847656 136.578125 48.609375 139.933594 49.171875 C 140.832031 49.320312 141.457031 49.382812 142.542969 48.976562 C 144.394531 48.28125 146.28125 47.390625 146.84375 47.132812 C 146.085938 48.050781 142.871094 51.667969 142.3125 52.488281 C 141.894531 53.09375 141.742188 53.464844 142.257812 54.292969 C 142.695312 54.996094 143.664062 55.964844 143.976562 56.269531 C 144.402344 56.6875 144.707031 56.703125 145.320312 56.429688 C 146.238281 56.007812 148.660156 54.792969 148.660156 54.792969 C 148.660156 54.792969 146.949219 57.664062 146.621094 58.347656 C 146.390625 58.8125 146.257812 59.105469 146.523438 60.066406 C 146.78125 60.980469 147.128906 61.664062 147.65625 62.554688 C 147.964844 63.078125 148.125 63.320312 148.777344 63.320312 C 149.417969 63.320312 150.484375 63.265625 151.722656 63.238281 C 151.304688 63.667969 149.371094 65.738281 148.347656 66.976562 C 148.082031 67.304688 148.027344 67.410156 148.019531 68.023438 C 148.011719 68.636719 148.125 69.402344 148.207031 69.804688 C 148.3125 70.300781 148.464844 70.285156 148.9375 70.34375 C 150.761719 70.585938 152.175781 70.976562 152.675781 71.269531 C 151.734375 71.9375 147.226562 76.933594 145.945312 79.703125 C 145.847656 79.921875 145.777344 80.15625 145.792969 80.394531 C 145.847656 81.125 145.953125 81.914062 146.132812 82.457031 C 146.195312 82.652344 146.300781 82.769531 146.628906 82.601562 C 147.476562 82.183594 148.160156 81.871094 148.777344 81.667969 C 147.191406 83.265625 145.320312 87.875 145.394531 90.570312 C 145.429688 91.945312 146.460938 93.601562 146.90625 94.136719 C 147.136719 94.417969 147.316406 94.304688 147.289062 93.976562 C 147.246094 93.34375 147.050781 90.570312 148.777344 86.476562 C 150.226562 83.035156 152.398438 80.972656 153.148438 80.332031 C 153.40625 80.109375 153.40625 80.058594 153.40625 79.835938 C 153.398438 79.515625 153.378906 78.953125 153.34375 78.589844 C 153.300781 78.101562 153.210938 77.976562 152.996094 77.871094 C 152.535156 77.636719 150.601562 77.816406 150.601562 77.816406 C 152.042969 75.574219 153.460938 74.285156 155.4375 72.585938 C 155.722656 72.335938 155.773438 72.335938 155.765625 71.9375 C 155.757812 71.546875 155.710938 71.066406 155.667969 70.824219 C 155.597656 70.433594 155.535156 70.300781 155.1875 70.105469 C 153.871094 69.359375 151.511719 69.066406 151.511719 69.066406 C 151.511719 69.066406 154.324219 67.019531 154.847656 66.316406 C 155.230469 65.800781 155.257812 65.675781 155.367188 64.761719 C 155.453125 63.960938 155.5625 62.597656 155.597656 62.03125 C 155.640625 61.308594 155.695312 60.632812 154.207031 60.5625 C 152.382812 60.472656 150.421875 60.679688 150.421875 60.679688 C 151.464844 59.476562 152.703125 58.1875 153.941406 57.085938 C 154.894531 56.242188 154.8125 55.929688 154.609375 54.695312 C 154.476562 53.859375 154.402344 53.402344 154.242188 52.703125 C 154.144531 52.273438 154.03125 52.125 153.550781 52.105469 C 151.929688 52.070312 149.210938 52.949219 149.210938 52.949219 C 149.941406 51.902344 151.421875 49.863281 152.160156 48.816406 C 152.363281 48.53125 152.730469 47.855469 152.320312 47.109375 C 151.707031 45.960938 150.136719 44.511719 149.828125 44.269531 C 149.222656 43.800781 149.113281 43.675781 148.144531 44.039062 C 147.457031 44.296875 145.285156 45.488281 143.773438 46.101562 C 142.882812 46.46875 142.347656 46.671875 141.449219 46.015625 C 140.710938 45.472656 139.5 44.101562 138.25 43.203125 C 138.082031 43.089844 137.867188 43.042969 137.519531 43.042969 C 136.160156 43.050781 133.433594 43.140625 132.527344 43.125 C 133.160156 42.730469 136.222656 41.566406 137.691406 41.335938 C 138.457031 41.210938 138.867188 41.28125 139.78125 42.082031 C 140.488281 42.695312 140.894531 43.210938 142.007812 44.144531 C 142.6875 44.707031 143.078125 44.820312 144.234375 43.914062 C 145.820312 42.679688 146.898438 41.585938 148.429688 40.222656 C 148.730469 39.957031 148.804688 39.929688 149.105469 40.171875 C 150.175781 41.015625 151.359375 41.933594 151.972656 42.367188 C 152.941406 43.0625 154.046875 42.707031 154.921875 42.152344 C 156.328125 41.265625 158.667969 39.164062 159.851562 37.519531 C 161.261719 35.574219 160.777344 34.210938 159.613281 33.074219 C 158.269531 31.765625 152.605469 27.535156 151.179688 26.636719 C 150.378906 26.136719 149.507812 25.941406 148.554688 26.734375 C 147.441406 27.667969 144.742188 30.742188 144.742188 30.742188 C 144.742188 30.742188 145.089844 28.753906 145.152344 28.351562 C 145.242188 27.757812 145.179688 27.558594 144.867188 27.230469 C 144.457031 26.796875 143.859375 26.234375 143.476562 25.90625 C 142.730469 25.257812 142.347656 25.140625 140.753906 25.90625 C 139.015625 26.734375 136.140625 28.085938 134.121094 29.046875 C 133.132812 29.5 133.007812 29.542969 132.613281 29.082031 Z M 132.613281 29.082031 " fill-opacity="1" fill-rule="nonzero"/><g clip-path="url(#fdd499e421)"><path fill="#000000" d="M 96.855469 141.351562 L 94.425781 141.351562 L 94.425781 146.984375 L 93.152344 146.984375 L 93.152344 141.351562 L 90.722656 141.351562 L 90.722656 140.207031 L 96.835938 140.207031 L 96.835938 141.351562 Z M 96.855469 141.351562 " fill-opacity="1" fill-rule="nonzero"/></g><g clip-path="url(#72a79249c4)"><path fill="#000000" d="M 120.929688 141.351562 L 120.929688 140.207031 L 116.992188 140.207031 L 116.992188 141.351562 L 118.324219 141.351562 L 118.324219 145.835938 L 116.992188 145.835938 L 116.992188 146.984375 L 120.929688 146.984375 L 120.929688 145.835938 L 119.601562 145.835938 L 119.601562 141.351562 Z M 120.929688 141.351562 " fill-opacity="1" fill-rule="nonzero"/></g><g clip-path="url(#db706eff34)"><path fill="#000000" d="M 112.714844 145.371094 L 109.226562 145.371094 L 108.542969 146.984375 L 107.175781 146.984375 L 110.089844 140.207031 L 111.867188 140.207031 L 114.746094 146.984375 L 113.398438 146.984375 Z M 112.230469 144.242188 L 111.4375 142.375 L 110.96875 141.230469 L 110.503906 142.375 L 109.710938 144.242188 Z M 112.230469 144.242188 " fill-opacity="1" fill-rule="nonzero"/></g><g clip-path="url(#35ec424cb9)"><path fill="#000000" d="M 130.804688 140.207031 L 130.804688 146.984375 L 129.078125 146.984375 L 125.839844 142.609375 L 125.246094 141.710938 L 125.246094 146.984375 L 123.953125 146.984375 L 123.953125 140.207031 L 125.714844 140.207031 L 128.863281 144.4375 L 129.507812 145.476562 L 129.507812 140.207031 Z M 130.804688 140.207031 " fill-opacity="1" fill-rule="nonzero"/></g><g clip-path="url(#a664f3f7e9)"><path fill="#000000" d="M 147.632812 140.207031 L 147.632812 146.984375 L 145.90625 146.984375 L 142.671875 142.609375 L 142.078125 141.710938 L 142.078125 146.984375 L 140.78125 146.984375 L 140.78125 140.207031 L 142.546875 140.207031 L 145.710938 144.4375 L 146.355469 145.476562 L 146.355469 140.207031 Z M 147.632812 140.207031 " fill-opacity="1" fill-rule="nonzero"/></g><g clip-path="url(#c596246b70)"><path fill="#000000" d="M 157.8125 143.414062 L 157.8125 146.984375 L 156.730469 146.984375 L 156.730469 145.710938 C 156.300781 146.804688 154.988281 147.089844 153.945312 147.089844 C 151.734375 147.089844 150.207031 145.65625 150.207031 143.59375 C 150.207031 141.53125 151.734375 140.117188 154.234375 140.117188 C 156.140625 140.117188 157.414062 140.921875 157.757812 142.359375 L 156.589844 142.878906 C 156.300781 141.730469 155.6875 141.28125 154.214844 141.28125 C 152.292969 141.28125 151.535156 141.925781 151.535156 143.59375 C 151.535156 145.316406 152.289062 145.980469 154.234375 145.980469 C 155.546875 145.980469 156.265625 145.40625 156.5 144.457031 L 154.628906 144.457031 L 154.628906 143.414062 Z M 157.8125 143.414062 " fill-opacity="1" fill-rule="nonzero"/></g><g clip-path="url(#dea7b14f48)"><path fill="#000000" d="M 170.074219 144.042969 L 171.351562 144.3125 C 171.046875 146.105469 169.714844 147.074219 167.609375 147.074219 C 165.273438 147.074219 163.710938 145.65625 163.710938 143.59375 C 163.710938 141.515625 165.273438 140.117188 167.609375 140.117188 C 169.714844 140.117188 171.046875 141.101562 171.351562 142.878906 L 170.074219 143.148438 C 169.839844 141.675781 169.246094 141.261719 167.609375 141.261719 C 165.703125 141.261719 165.039062 141.855469 165.039062 143.578125 C 165.039062 145.316406 165.703125 145.910156 167.609375 145.910156 C 169.246094 145.925781 169.839844 145.515625 170.074219 144.042969 Z M 170.074219 144.042969 " fill-opacity="1" fill-rule="nonzero"/></g><g clip-path="url(#30ee08645e)"><path fill="#000000" d="M 175.144531 141.371094 L 175.144531 142.824219 L 178.832031 142.824219 L 178.832031 143.953125 L 175.144531 143.953125 L 175.144531 145.800781 L 179.027344 145.800781 L 179.027344 146.964844 L 173.886719 146.964844 L 173.886719 140.1875 L 179.027344 140.1875 L 179.027344 141.351562 L 175.144531 141.351562 Z M 175.144531 141.371094 " fill-opacity="1" fill-rule="nonzero"/></g><g clip-path="url(#ec85a9f3e0)"><path fill="#000000" d="M 188.667969 140.207031 L 188.667969 146.984375 L 186.941406 146.984375 L 183.703125 142.609375 L 183.109375 141.710938 L 183.109375 146.984375 L 181.816406 146.984375 L 181.816406 140.207031 L 183.578125 140.207031 L 186.742188 144.4375 L 187.390625 145.476562 L 187.390625 140.207031 Z M 188.667969 140.207031 " fill-opacity="1" fill-rule="nonzero"/></g><g clip-path="url(#5e8c39bfa7)"><path fill="#000000" d="M 197.246094 141.351562 L 194.816406 141.351562 L 194.816406 146.984375 L 193.539062 146.984375 L 193.539062 141.351562 L 191.113281 141.351562 L 191.113281 140.207031 L 197.226562 140.207031 L 197.226562 141.351562 Z M 197.246094 141.351562 " fill-opacity="1" fill-rule="nonzero"/></g><g clip-path="url(#4ae9676b31)"><path fill="#000000" d="M 204.132812 144.132812 C 205.066406 143.882812 205.625 143.183594 205.625 142.234375 C 205.625 141.011719 204.726562 140.222656 203.285156 140.222656 L 199.707031 140.222656 L 199.707031 147.003906 L 200.984375 147.003906 L 200.984375 144.257812 L 202.996094 144.257812 L 204.273438 147.003906 L 205.765625 147.003906 Z M 200.984375 143.148438 L 200.984375 141.316406 L 203.214844 141.316406 C 204.003906 141.316406 204.292969 141.550781 204.292969 142.214844 C 204.292969 142.894531 204.003906 143.128906 203.214844 143.128906 L 200.984375 143.128906 Z M 200.984375 143.148438 " fill-opacity="1" fill-rule="nonzero"/></g><g clip-path="url(#93e07a1067)"><path fill="#000000" d="M 209.507812 141.371094 L 209.507812 142.824219 L 213.191406 142.824219 L 213.191406 143.953125 L 209.507812 143.953125 L 209.507812 145.800781 L 213.390625 145.800781 L 213.390625 146.964844 L 208.25 146.964844 L 208.25 140.1875 L 213.390625 140.1875 L 213.390625 141.351562 L 209.507812 141.351562 Z M 209.507812 141.371094 " fill-opacity="1" fill-rule="nonzero"/></g><g clip-path="url(#66e09fc66b)"><path fill="#000000" d="M 103.742188 144.132812 C 104.675781 143.882812 105.234375 143.183594 105.234375 142.234375 C 105.234375 141.011719 104.335938 140.222656 102.894531 140.222656 L 99.316406 140.222656 L 99.316406 147.003906 L 100.59375 147.003906 L 100.59375 144.257812 L 102.609375 144.257812 L 103.886719 147.003906 L 105.378906 147.003906 Z M 100.59375 143.148438 L 100.59375 141.316406 L 102.824219 141.316406 C 103.617188 141.316406 103.902344 141.550781 103.902344 142.214844 C 103.902344 142.894531 103.617188 143.128906 102.824219 143.128906 L 100.59375 143.128906 Z M 100.59375 143.148438 " fill-opacity="1" fill-rule="nonzero"/></g><g clip-path="url(#14208987b8)"><path fill="#000000" d="M 137.742188 141.351562 L 137.742188 140.207031 L 133.824219 140.207031 L 133.824219 141.351562 L 135.15625 141.351562 L 135.15625 145.835938 L 133.824219 145.835938 L 133.824219 146.984375 L 137.742188 146.984375 L 137.742188 145.835938 L 136.429688 145.835938 L 136.429688 141.351562 Z M 137.742188 141.351562 " fill-opacity="1" fill-rule="nonzero"/></g><path fill="#000000" d="M 139.074219 127.53125 L 139.074219 115.640625 C 139.074219 113.523438 137.347656 111.820312 135.246094 111.820312 L 124.742188 111.820312 L 124.742188 127.53125 L 128.304688 127.53125 L 128.304688 114.976562 L 134.292969 114.976562 C 134.976562 114.976562 135.53125 115.53125 135.53125 116.214844 L 135.53125 127.511719 L 139.074219 127.511719 Z M 139.074219 127.53125 " fill-opacity="1" fill-rule="nonzero"/><g clip-path="url(#0a21ec453e)"><path fill="#000000" d="M 67.382812 111.820312 L 67.382812 114.976562 L 72.921875 114.976562 L 72.921875 127.53125 L 76.480469 127.53125 L 76.480469 114.976562 L 82.019531 114.976562 L 82.019531 111.820312 Z M 67.382812 111.820312 " fill-opacity="1" fill-rule="nonzero"/></g><path fill="#000000" d="M 118.523438 114.976562 L 118.523438 111.820312 L 107.859375 111.820312 L 107.859375 114.976562 L 111.417969 114.976562 L 111.417969 124.375 L 107.859375 124.375 L 107.859375 127.53125 L 118.523438 127.53125 L 118.523438 124.375 L 114.960938 124.375 L 114.960938 114.976562 Z M 118.523438 114.976562 " fill-opacity="1" fill-rule="nonzero"/><path fill="#000000" d="M 98.078125 111.820312 L 98.078125 118.097656 L 90.847656 118.097656 L 90.847656 111.820312 L 87.289062 111.820312 L 87.289062 127.53125 L 90.847656 127.53125 L 90.847656 121.253906 L 98.078125 121.253906 L 98.078125 127.53125 L 101.636719 127.53125 L 101.636719 111.820312 Z M 98.078125 111.820312 " fill-opacity="1" fill-rule="nonzero"/><path fill="#000000" d="M 179.460938 111.820312 L 164.824219 111.820312 L 164.824219 113.597656 L 171.152344 113.597656 L 171.152344 127.53125 L 173.132812 127.53125 L 173.132812 113.597656 L 179.460938 113.597656 Z M 179.460938 111.820312 " fill-opacity="1" fill-rule="nonzero"/><g clip-path="url(#2c8f625a8b)"><path fill="#000000" d="M 236.730469 111.820312 L 234.753906 111.820312 C 234.753906 115.675781 231.625 118.796875 227.757812 118.796875 L 224.394531 118.796875 L 224.394531 111.820312 L 222.417969 111.820312 L 222.417969 127.53125 L 224.394531 127.53125 L 224.394531 120.554688 L 234.753906 120.554688 L 234.753906 127.53125 L 236.730469 127.53125 L 236.730469 118.796875 L 233.261719 118.796875 C 235.363281 117.199219 236.730469 114.671875 236.730469 111.820312 Z M 236.730469 111.820312 " fill-opacity="1" fill-rule="nonzero"/></g><path fill="#000000" d="M 197.246094 127.53125 L 189.980469 111.820312 L 187.859375 111.820312 L 180.59375 127.53125 L 182.679688 127.53125 L 184.117188 124.390625 C 185.628906 124.875 187.210938 125.125 188.828125 125.125 C 190.5 125.125 192.136719 124.859375 193.683594 124.335938 L 195.15625 127.511719 L 197.246094 127.511719 Z M 188.847656 123.226562 C 187.5 123.226562 186.183594 123.027344 184.945312 122.652344 L 188.9375 114.027344 L 192.910156 122.597656 C 191.617188 123.011719 190.25 123.226562 188.847656 123.226562 Z M 188.847656 123.226562 " fill-opacity="1" fill-rule="nonzero"/><path fill="#000000" d="M 159.628906 112.679688 L 159.628906 111.820312 L 156.066406 111.820312 L 156.066406 112.699219 C 156.066406 115.675781 153.640625 118.097656 150.65625 118.097656 L 148.855469 118.097656 L 148.855469 111.820312 L 145.296875 111.820312 L 145.296875 127.53125 L 148.855469 127.53125 L 148.855469 121.253906 L 150.65625 121.253906 C 153.640625 121.253906 156.066406 123.675781 156.066406 126.652344 L 156.066406 127.53125 L 159.628906 127.53125 L 159.628906 126.667969 C 159.628906 123.78125 158.1875 121.234375 156.011719 119.675781 C 158.1875 118.113281 159.628906 115.570312 159.628906 112.679688 Z M 159.628906 112.679688 " fill-opacity="1" fill-rule="nonzero"/><path fill="#000000" d="M 214.34375 111.820312 L 214.34375 125.539062 L 204.3125 111.820312 L 201.683594 111.820312 L 201.683594 127.53125 L 203.664062 127.53125 L 203.664062 113.8125 L 213.714844 127.53125 L 216.324219 127.53125 L 216.324219 111.820312 Z M 214.34375 111.820312 " fill-opacity="1" fill-rule="nonzero"/></svg>